<?xml version="1.0" encoding="UTF-8"?>
<svg id="Layer_1" data-name="Layer 1" xmlns="http://www.w3.org/2000/svg" viewBox="0 0 500 500">
  <defs>
    <style>
      .cls-1 {
        fill: #e94040;
      }

      .cls-2 {
        fill: #212121;
      }

      .cls-3 {
        fill: #999;
      }
    </style>
  </defs>
  <path class="cls-2" d="M364.039818448942242,271.238040612461191l-2.581080195064715-5.598426633905547-4.52606479703536-9.821294290803053-2.721552057520967-5.916429291682107-2.403549399745316-5.206441526721392-4.097111034530826-8.889449455158683-4.844067454809192-10.523834158171667v-.007402758817989l-.199693933001981-.421551003685636h-12.838640729643885l-.192291174183993.428953762503625-4.851470213627181,10.523834158171667-4.097156173304029,8.889449455158683-2.396146640927327,5.206441526721392-2.728954816338955,5.916429291682107-4.52606479703536,9.821294290803053-2.581035056293331,5.598426633905547-2.581035056291512,5.605784253952152h13.23062583682804l2.581035056293331-5.605784253952152,2.581035056291512-5.598426633905547h23.961556686821496l2.581035056291512,5.598426633905547,2.581035056293331,5.605784253952152h13.23062583682804l-2.581035056293331-5.605784253952152ZM328.792665666036555,255.818319687752592l2.721552057520967-5.916429291682107,2.403549399745316-5.206441526721392,2.329612089108196-5.05856690544806,2.329566950336812,5.05856690544806,2.403549399745316,5.206441526721392,2.721597196294169,5.916429291682107h-14.909427092750775Z"/>
  <polygon class="cls-2" points="194.304850385005921 224.853211493515118 194.304850385005921 276.843824866413343 181.214741549405517 276.843824866413343 181.214741549405517 247.365226753915522 179.780005640622221 249.901890396070485 176.437208646414547 255.818319687752592 170.88315342664464 265.639613978555644 170.639133218279312 266.068567741058359 167.717887227757274 271.238040612461191 161.09887292993335 271.238040612461191 158.177626939411311 266.068567741058359 157.933606731045984 265.639613978555644 152.379551511276077 255.818319687752592 149.036754517068402 249.901890396070485 146.470524978412868 245.361065220173259 146.470524978412868 276.843824866413343 133.380416142812464 276.843824866413343 133.380416142812464 224.853211493515118 147.343192882282892 224.853211493515118 153.533253417603191 235.80599941419041 158.562209287777478 244.695448869349093 161.505618415982099 249.901890396070485 164.41205888886816 255.041797370973654 167.311141741708525 249.901890396070485 170.254550869913146 244.695448869349093 175.283506740087432 235.80599941419041 181.214741549405517 225.311731152518405 181.473567275407731 224.853211493515118 194.304850385005921 224.853211493515118"/>
  <path class="cls-2" d="M280.425838151029893,235.510205032869635c1.027990422735456,0,2.041175327833116.103503207136782,3.009988818796046.295794381320775h-6.019932498818889c.968813490961111-.192291174183993,1.98199839606059-.295794381320775,3.009943680022843-.295794381320775Z"/>
  <path class="cls-2" d="M283.435826969825939,235.80599941419041h-6.019932498818889c.968813490961111-.192291174183993,1.98199839606059-.295794381320775,3.009943680022843-.295794381320775,1.027990422735456,0,2.041175327833116.103503207136782,3.009988818796046.295794381320775Z"/>
  <rect class="cls-1" x="133.379146494764427" y="199.14162552693233" width="79.808854700557276" height="13.406377012003759"/>
  <polygon class="cls-2" points="218.473458624873274 235.80599941419041 218.473458624873274 244.695448869349093 242.390598758783199 244.695448869349093 242.390598758783199 255.818319687752592 218.473458624873274 255.818319687752592 218.473458624873274 265.639613978555644 246.169752274312486 265.639613978555644 246.169752274312486 276.843824866413343 205.131881683316351 276.843824866413343 205.131881683316351 224.853211493515118 246.169752274312486 224.853211493515118 246.169752274312486 235.80599941419041 218.473458624873274 235.80599941419041"/>
  <path class="cls-2" d="M265.12451622863955,249.901890396070485c-.029611035273774.310645037730865-.037013794091763.628647695505606-.037013794091763.946650353280347,0,1.737933048922969.288436761275079,3.416734304843885.828296489733475,4.96977893840176,1.353395839329096,3.964041930894382,4.289447347488021,7.203245440417959,8.061152965427027,8.94122362811504.761761937914343.362374071910381,1.553044633556055.658213592003449,2.381341123289531.880070662688013,1.294218907556569.354971313092392,2.655017505703654.547262487276384,4.067545138032074.547262487276384,1.412572771101622,0,2.773326230475504-.192291174183993,4.067545138030255-.547262487276384,1.819318257150371-.495488314321847,3.498119513073107-1.323829942828525,4.977226835993861-2.403549399745316v-13.334174182739844h12.33574965650223v20.441274036066716c-.273631243637283.303197140137854-.562068004912362.606439419048911-.850504766187441.89487618032399-2.26303239851768,2.277792777382274-4.903244386583538,4.185853862805743-7.817087618286678,5.605784253952152-1.183267802827686.576873522550159-2.403549399747135,1.079764595689994-3.668157272028111,1.493912840556732-2.847308679885828.939247594462358-5.886863395182445,1.442138667602194-9.044771974024115,1.442138667602194-4.56303345235392,0-8.874643937522706-1.057556319234209-12.712884107279024-2.936051508158926-1.087167354509802-.532456969640407-2.129918156108033-1.12409087105334-3.135745441160907-1.789707221876597-1.69356163478551-1.101927733372577-3.261411785979362-2.38134112329135-4.681342177125771-3.816077032075555-1.663995738286758-1.678801255920916-3.128342682342918-3.55725130607243-4.348579140489164-5.598426633905547-1.767544084195833-2.973020163477486-3.024794336432024-6.286206122411386-3.631233755482754-9.821294290803053-.281034002457091-1.612221565330401-.428908623729512-3.27621730361534-.428908623729512-4.96977893840176,0-.318002657774741.007357620044786-.636005315549482.014760378862775-.946650353280347.059176931774346-1.782304463058608.273631243639102-3.52028265075387.64340807436929-5.206441526721392.687779488505839-3.194877234160231,1.908061085423469-6.19006053531939,3.549893686027644-8.889449455158683,2.869426678793388-4.703550453581556,7.040520162734538-8.519627485656201,12.002941481090602-10.952787920675291,3.838285308529521-1.885852808968593,8.157253413744911-2.943409128203712,12.72768962491682-2.943409128203712,3.157908578841671,0,6.197463294138288.502891073139835,9.044771974024115,1.442138667602194,1.272010631100784.414148244866738,2.499694986836403.917039318006573,3.682962789664089,1.501270460601518,3.27621730361534,1.604818806512412,6.212268811774265,3.823479790892634,8.652786866838142,6.493302814232266.451116900185298.495488314321847.887473421507821,1.00578214628058,1.301621666374558,1.538239115920078l-1.301621666374558,1.419975529920521-1.368156218191871,1.501270460602427-6.729965402551898,7.36597071810229c-1.072361836872005-1.848884153650943-2.514455365700996-3.453702960163355-4.237628035758462-4.710953212400455-1.760141325377845-1.29421890755475-3.80871941202895-2.211258225562233-6.03478315522807-2.655017505701835-.96881349096293-.192291174183993-1.98199839606059-.295794381320775-3.009988818796046-.295794381320775-1.027945283962254,0-2.041130189061732.103503207136782-3.009943680022843.295794381320775-4.962421318356064.983619008597998-9.066935111706698,4.363384658124232-11.041575887722502,8.889449455158683-.709942626186603,1.612221565330401-1.146299147507307,3.364960131889347-1.249802354644999,5.206441526721392Z"/>
  <g>
    <path class="cls-3" d="M134.777280620812235,287.438075510905037v-2.37754946633504h12.553995625324205v2.37754946633504h-4.999209418581813v13.1761884762509h-2.555215677974957v-13.1761884762509h-4.999570528767435Z"/>
    <path class="cls-3" d="M155.19625610287585,289.393126059316273l-.044416552909752,2.355882855159507c-.466554360647933-.044777663095374-.955497552843553-.067166494643971-1.422051913491487-.067166494643971-1.910995105687107,0-3.044158870170577,1.155552596032067-3.044158870170577,3.177769639087273v5.754651928236854h-2.466382572154544v-11.109915990471563h2.399938297882727v1.99982821150661c.64422057228785-1.333218807671074,1.977439379958923-2.243938697418344,3.555129783728262-2.243938697418344.333304701918678,0,.688637125197602.04405544272413,1.02194182711537.132888548543633Z"/>
    <path class="cls-3" d="M164.127955449827823,300.614263987155937v-1.99982821150661c-.555748576653968,1.377996470766448-1.955411658596859,2.243938697418344-3.910823317194627,2.243938697418344-2.622021062432395,0-4.021684144376195-1.466107356214707-4.021684144376195-3.55476867354264,0-2.977714595897851,3.221825081810493-3.933212148742314,7.621230481015118-3.266602744906777l-.022027721362065-.710664846559666c0-1.488496187763303-1.133524874670002-2.133438980423307-2.48877140370314-2.133438980423307-1.221996870302974,0-2.355160634786444.533720855291904-3.110603144442393,1.46682957658777l-1.333218807671074-1.3996630819438c1.199608038755287-1.35560763921967,2.844103826982064-2.022217043055207,4.643876995301071-2.022217043055207,2.777298442524625,0,4.732710101122393,1.822161999867603,4.732710101122393,4.443821952114376v6.932593355817517h-2.110689038689088ZM158.617414007501793,297.148328419432801c0,1.154830375659003.666609403836446,1.888606274140329,2.199522144509501,1.888606274140329,1.866578552777355,0,2.999742317260825-1.089108321761159,2.999742317260825-2.911270321626944v-.68827601501107c-3.13299197599099-.511332023745126-5.199264461770326.044055442722311-5.199264461770326,1.710940062497684Z"/>
    <path class="cls-3" d="M179.769804277860203,300.614263987155937h-2.244299807604875v-2.26632752896694c-.666609403835537,1.533273850858677-2.37754946633504,2.510438014878673-4.244128019112395,2.510438014878673-3.377102461901814,0-5.221292183131482-2.332771803239666-5.221292183131482-5.865873865604954,0-3.377102461903633,1.955050548411236-5.754651928238673,5.243681014680078-5.754651928238673,2.044244764416362,0,3.666351721096362,1.310829976124296,4.044072975923882,2.466382572156363v-6.643705206810409h2.421966019244792v15.55373794258594ZM177.347838258615411,294.992500607462716c0-2.15510559159884-1.422051913491487-3.643601779362143-3.466296677908758-3.643601779362143-1.955411658596859,0-3.310658187629997,1.466107356214707-3.310658187629997,3.643601779362143,0,2.199883254694214,1.355246529033138,3.688379442457517,3.377102461901814,3.688379442457517,1.977800490145455,0,3.399852403636942-1.532551630487433,3.399852403636942-3.688379442457517Z"/>
    <path class="cls-3" d="M188.345087870973657,298.836879650385526c1.533273850859587,0,2.910909211440412-.60016512956463,3.643962889547765-1.57805151395587l1.377635360581735,1.444440745039174c-.955136442657022,1.333218807671074-2.932936932802477,2.15510559159884-5.110431355949913,2.15510559159884-3.555129783728262,0-5.954706971425367-2.355160634786444-5.954706971425367-5.843485034058176,0-3.39949129345041,2.443993740606857-5.754651928236854,5.843846144243798-5.754651928236854,3.710407163820491,0,5.865873865604954,2.355160634786444,5.55459688504925,6.37720588935008h-8.887643904227843c0,1.910272885314043,1.599718125131403,3.199436250262806,3.532740952180575,3.199436250262806ZM184.789958087245395,294.081780717715446h6.488066716530739c-.022027721362065-1.710940062499503-1.177580317393222-2.97771459589967-3.132630865804458-2.97771459589967-1.888967384325042,0-3.288630466268842,1.400385302315044-3.35543585072628,2.97771459589967Z"/>
    <path class="cls-3" d="M211.763083449925944,300.614263987155937h-10.243251543447514v-15.55373794258594h2.577604509522644v13.1761884762509h7.66564703392487v2.37754946633504Z"/>
    <path class="cls-3" d="M214.562048503626102,298.281492183916271l.022388831548596-6.599649764084461h-2.199883254695123v-2.177494423147436h2.199883254695123v-3.51071323081851h2.466382572154544v3.51071323081851h3.266241634720245v2.177494423147436h-3.266241634720245v6.399594720896857c0,.177666211640826.133249658730165.310554760184459.310915870370081.310554760184459h2.999742317259916v2.22227208624281h-3.466296677907849c-1.288802254761322,0-2.333132913425288-1.044330658663966-2.333132913425288-2.332771803239666Z"/>
    <path class="cls-3" d="M233.470500076565258,300.614263987155937h-2.244299807604875v-2.26632752896694c-.666609403835537,1.533273850858677-2.37754946633504,2.510438014878673-4.244128019112395,2.510438014878673-3.377102461901814,0-5.221292183131482-2.332771803239666-5.221292183131482-5.865873865604954,0-3.377102461903633,1.955050548411236-5.754651928238673,5.243681014680078-5.754651928238673,2.044244764416362,0,3.666351721096362,1.310829976124296,4.044072975923882,2.466382572156363v-6.643705206810409h2.421966019244792v15.55373794258594ZM231.048534057320467,294.992500607462716c0-2.15510559159884-1.422051913491487-3.643601779362143-3.466296677908758-3.643601779362143-1.955411658596859,0-3.310658187629997,1.466107356214707-3.310658187629997,3.643601779362143,0,2.199883254694214,1.355246529033138,3.688379442457517,3.377102461901814,3.688379442457517,1.977800490145455,0,3.399852403636942-1.532551630487433,3.399852403636942-3.688379442457517Z"/>
  </g>
</svg>