<svg width="32" height="24" viewBox="0 0 32 24" fill="none" xmlns="http://www.w3.org/2000/svg">
<g clip-path="url(#clip0_14_284)">
<mask id="mask0_14_284" style="mask-type:luminance" maskUnits="userSpaceOnUse" x="0" y="0" width="32" height="24">
<path d="M0.00166321 0H31.9985V24H0.00166321V0Z" fill="white"/>
</mask>
<g mask="url(#mask0_14_284)">
<path fill-rule="evenodd" clip-rule="evenodd" d="M-2 0H34V24H-2V0Z" fill="#165D31"/>
<path fill-rule="evenodd" clip-rule="evenodd" d="M7.07032 6.80155C7.03282 7.36405 6.97657 8.34843 7.45938 8.45155C8.03594 8.5078 7.71719 7.47655 7.92813 7.28905C7.96563 7.1953 8.03594 7.1953 8.04063 7.31249V8.18905C8.04063 8.4703 8.22813 8.55468 8.36875 8.61093C8.51875 8.60155 8.62188 8.61093 8.67813 8.75155L8.75313 10.2656C8.75313 10.2656 9.1 10.3687 9.11875 9.41718C9.13282 8.85468 9.00625 8.39062 9.08125 8.2828C9.08125 8.17499 9.22188 8.1703 9.31563 8.22187C9.46563 8.32499 9.53125 8.45624 9.76563 8.40937C10.1219 8.30624 10.3375 8.1328 10.3422 7.86093C10.3352 7.59375 10.2796 7.33008 10.1781 7.0828C10.1969 7.03593 10.1125 6.90937 10.1313 6.86249C10.1922 6.96562 10.2906 6.95624 10.3094 6.86249C10.2484 6.66562 10.1547 6.47343 10.0047 6.39374C9.87813 6.28124 9.69063 6.29999 9.62969 6.53437C9.59219 6.80155 9.72344 7.11562 9.91563 7.37812C9.95782 7.47655 10.0141 7.6453 9.99063 7.7953C9.8875 7.85624 9.78438 7.82812 9.69532 7.73905C9.69532 7.73905 9.41407 7.52812 9.41407 7.47655C9.48907 6.99843 9.42813 6.94218 9.38594 6.80624C9.35782 6.62343 9.26875 6.56249 9.19844 6.44062C9.12813 6.36562 9.03438 6.36562 8.9875 6.44062C8.86094 6.65624 8.92188 7.1203 9.01094 7.33124C9.07657 7.52343 9.175 7.6453 9.12813 7.6453C9.09063 7.75312 9.01094 7.72499 8.95 7.59843C8.88141 7.33208 8.84831 7.05783 8.85157 6.7828C8.82813 6.56718 8.8 6.1078 8.65469 5.98593C8.57032 5.87343 8.44375 5.92968 8.39688 6.0328C8.3845 6.24221 8.38921 6.45228 8.41094 6.66093C8.50469 7.0078 8.5375 7.31718 8.58438 7.66874C8.59844 8.14218 8.3125 7.87499 8.32657 7.63593C8.38806 7.33539 8.38326 7.02505 8.3125 6.72655C8.26563 6.60468 8.21407 6.57655 8.09688 6.5953C8.00782 6.5953 7.77813 6.84374 7.7125 7.26562C7.7125 7.26562 7.65625 7.48124 7.63282 7.67343C7.6 7.88905 7.45938 8.04843 7.35625 7.6453C7.27188 7.34999 7.21563 6.6328 7.075 6.80155H7.07032Z" fill="white"/>
<path fill-rule="evenodd" clip-rule="evenodd" d="M8.64062 9.10308L7.14062 9.82495C7.15469 9.48276 7.84844 8.8687 8.32656 8.86401C8.63125 8.8687 8.55625 8.9812 8.63594 9.10308H8.64062Z" fill="white"/>
<path fill-rule="evenodd" clip-rule="evenodd" d="M8.37344 9.57178C7.58594 11.6108 10.225 11.8968 10.5203 9.65615C10.5484 9.5624 10.6609 9.47334 10.6797 9.62334C10.6188 11.653 8.63594 11.789 8.29844 11.1515C8.21905 10.9321 8.17936 10.7004 8.18125 10.4671C8.13438 10.0687 7.92344 10.2233 7.89063 10.6171C7.85782 10.8374 7.86719 10.8983 7.86719 11.1093C7.97032 12.7124 10.525 12.0233 10.9422 10.7015C11.1625 9.97022 10.9047 9.43115 11.0219 9.43115C11.275 9.70303 11.6313 9.46865 11.7109 9.3749C11.7438 9.32803 11.8281 9.29522 11.8844 9.35615C12.0813 9.49678 12.4281 9.43115 12.5031 9.18272C12.5453 8.93428 12.5781 8.68115 12.5875 8.42334C12.4234 8.47022 12.3063 8.50303 12.2922 8.57334L12.2594 8.78897C12.2453 8.85928 12.1094 8.85928 12.1 8.77022C12.0391 8.48897 11.7859 8.45615 11.6313 8.8874C11.5328 8.97178 11.3453 8.99053 11.3266 8.86397C11.35 8.57334 11.2328 8.53584 10.9984 8.67178L10.7734 6.9749C10.8672 6.9749 10.9609 7.04522 11.05 6.93272C10.9563 6.62803 10.7453 6.00928 10.6281 5.9624C10.5766 5.89678 10.5297 5.93897 10.4547 5.95772C10.3328 5.99522 10.2203 6.09834 10.2578 6.30459C10.3984 7.18584 10.4922 7.85615 10.6375 8.74209C10.6609 8.84053 10.5766 8.97647 10.4641 8.9624C10.2766 8.83584 10.2297 8.57803 9.90157 8.5874C9.66719 8.5874 9.40469 8.84522 9.37188 9.08897C9.32969 9.28584 9.31563 9.49678 9.37188 9.66553C9.53594 9.8624 9.73282 9.84365 9.90625 9.80147C10.0469 9.74053 10.1641 9.5999 10.2156 9.63272C10.2484 9.6749 10.2203 10.1437 9.54532 10.4999C9.1375 10.6874 8.80938 10.7249 8.63594 10.3921C8.52813 10.1812 8.64532 9.38897 8.37344 9.57178Z" fill="white"/>
<path fill-rule="evenodd" clip-rule="evenodd" d="M11.7344 7.50009C11.8891 7.44384 12.6391 6.58134 12.6391 6.58134L12.5266 6.48759C12.4844 6.45478 12.4891 6.41728 12.5266 6.38446C12.7141 6.27196 12.6531 6.03759 12.5594 5.92509C12.4957 5.89406 12.4257 5.87833 12.3549 5.87914C12.2841 5.87996 12.2145 5.89729 12.1516 5.92978C12.0203 6.05634 11.9922 6.2579 12.0953 6.37978C12.1937 6.42665 12.2922 6.52978 12.2266 6.58603C11.9172 6.91415 11.0781 7.48134 11.1766 7.50009C11.1953 7.52821 11.7156 7.52821 11.7297 7.50009H11.7344ZM7.1875 10.547C6.90625 10.997 6.88281 11.6673 7.0375 11.8688C7.12188 11.9626 7.25781 12.0048 7.35625 11.972C7.53438 11.897 7.61406 11.536 7.57188 11.4095C7.51094 11.3157 7.46406 11.3017 7.40313 11.3766C7.28125 11.6298 7.22969 11.4563 7.21563 11.3157C7.20219 11.0776 7.21476 10.8386 7.25313 10.6032C7.28594 10.4063 7.25313 10.4626 7.1875 10.547ZM19.2391 9.82977C18.9672 9.23915 18.5875 8.6579 18.4703 8.43759C18.105 7.86011 17.7172 7.29718 17.3078 6.75009C17.0172 6.40321 17.7859 6.8954 17.2141 6.20165L16.7969 5.85009C16.7031 5.78446 16.4781 5.66259 16.4406 5.85946C16.4219 6.03759 16.4312 6.13134 16.4594 6.27665C16.4828 6.3704 16.6234 6.53446 16.6937 6.62821C17.6547 7.90108 18.4988 9.25816 19.2156 10.6829C19.3375 10.622 19.3094 9.92821 19.2391 9.82977Z" fill="white"/>
<path fill-rule="evenodd" clip-rule="evenodd" d="M18.0438 11.789C17.9875 11.8499 18.175 12.1077 18.4188 12.1077C18.8219 12.0608 19.1781 11.8358 19.5063 11.2358C19.6396 11.0363 19.7246 10.8084 19.7547 10.5702C19.7944 9.43229 19.7032 8.29357 19.4828 7.17647C19.4688 7.08272 19.4828 6.97022 19.4922 6.9421C19.5203 6.90928 19.6094 6.94209 19.6563 6.86241C19.7266 6.79209 19.4688 6.20616 19.3281 5.98584C19.2813 5.88272 19.2578 5.81709 19.1734 5.99522C19.0716 6.19177 19.0231 6.41158 19.0328 6.63272C19.225 7.96866 19.2859 9.13584 19.4078 10.4718C19.4219 10.603 19.4031 10.7905 19.3141 10.8655C18.9604 11.2593 18.5275 11.574 18.0438 11.789ZM23.5047 11.7843C23.2141 11.953 23.2141 12.1452 23.4484 12.1499C23.8516 12.103 24.3297 12.0702 24.6578 11.5733C24.7737 11.3393 24.8407 11.0841 24.8547 10.8233C24.9137 9.70293 24.8397 8.57948 24.6344 7.47647C24.625 7.38272 24.5828 7.16241 24.5969 7.13428C24.625 7.06866 24.7563 7.13897 24.8031 7.06397C24.8688 6.99366 24.4609 6.46866 24.3156 6.24366C24.2688 6.14053 24.25 6.07491 24.1609 6.25303C24.0665 6.45139 24.037 6.67445 24.0766 6.89053C24.2922 8.34366 24.4516 9.43116 24.4844 10.7155C24.4656 10.8374 24.4609 10.903 24.4047 11.0577C24.2781 11.2171 24.1375 11.4233 24.0063 11.5218C23.875 11.6155 23.5938 11.7093 23.5047 11.7843Z" fill="white"/>
<path fill-rule="evenodd" clip-rule="evenodd" d="M23.7203 10.4858C23.7203 10.1437 23.725 9.85303 23.7156 9.59522C23.7126 9.37688 23.6647 9.16149 23.575 8.96241C23.4906 8.77022 23.5422 8.61553 23.5 8.40928C23.4625 8.20303 23.4719 7.89366 23.4156 7.6546C23.3969 7.56085 23.35 7.25616 23.3641 7.22335C23.3875 7.15772 23.4766 7.22335 23.5234 7.14835C23.5891 7.07803 23.2891 6.3046 23.1391 6.08428C23.0875 5.98585 22.9844 6.01866 22.8672 6.17803C22.75 6.28585 22.7922 6.52491 22.8391 6.7546C23.125 8.26866 23.3453 9.6421 23.2984 11.0812C23.2797 11.203 23.7203 10.7155 23.7203 10.4858ZM21.5781 8.61085C21.3953 8.60147 21.0156 8.24991 20.9031 8.04835C20.8847 7.99909 20.8769 7.9465 20.8801 7.89401C20.8833 7.84152 20.8976 7.79029 20.9219 7.74366C20.9922 7.69678 21.0953 7.64991 21.175 7.69678C21.175 7.69678 21.2547 7.80928 21.2406 7.82335C21.3344 7.87022 21.3812 7.84678 21.3906 7.8046C21.3953 7.73428 21.3625 7.6921 21.3625 7.6171C21.4047 7.40147 21.6437 7.36866 21.7375 7.5046C21.8031 7.58897 21.8312 7.76241 21.8359 7.8796C21.8359 7.94053 21.7422 7.87022 21.6812 7.8796C21.6297 7.89835 21.6156 7.96397 21.6109 8.02022C21.6016 8.17491 21.5828 8.42335 21.5781 8.60616V8.61085ZM18.2125 10.8608C18.2594 10.4015 18.1937 9.58116 18.1891 9.30928C18.164 8.61008 18.1061 7.91244 18.0156 7.21866C17.9594 6.82491 18.175 7.26085 18.1469 7.03116C18.0766 6.6421 17.8609 6.37491 17.6031 6.02335C17.5234 5.90616 17.5234 5.88272 17.3969 6.05147C17.2562 6.36553 17.3781 6.58585 17.4156 6.83428C17.5984 7.64053 17.7062 8.38116 17.7578 9.1171C17.8118 9.88159 17.818 10.6487 17.7766 11.414C17.9172 11.4187 18.1328 11.1937 18.2125 10.8608Z" fill="white"/>
<path fill-rule="evenodd" clip-rule="evenodd" d="M24.3437 10.125C24.0203 9.58123 23.5375 8.99998 23.4062 8.77967C22.9716 8.17268 22.515 7.58166 22.0375 7.0078C21.6391 6.58592 22.225 6.93748 21.9625 6.60936C21.7422 6.3703 21.6812 6.29061 21.4891 6.1453C21.3953 6.08436 21.3391 5.96717 21.3016 6.16873C21.2866 6.34332 21.2835 6.51872 21.2922 6.69373C21.2922 6.77342 21.3766 6.92811 21.4516 7.02186C22.4219 8.21717 23.4859 9.43592 24.3391 10.9687C24.4609 10.9078 24.4187 10.2187 24.3391 10.125H24.3437Z" fill="white"/>
<path fill-rule="evenodd" clip-rule="evenodd" d="M9.74687 9.12644C9.72344 9.16863 9.67187 9.22019 9.69062 9.27175C9.72344 9.31863 9.75625 9.33269 9.8125 9.33269C9.86406 9.33269 9.93906 9.34675 9.95312 9.31863C9.98125 9.28582 10 9.22488 9.98125 9.16394C9.925 9.02332 9.775 9.07957 9.74687 9.12644Z" fill="#165D31"/>
<path fill-rule="evenodd" clip-rule="evenodd" d="M20.6031 16.9921C21.0344 17.0109 21.3156 17.0155 21.6953 17.0577L22.1453 17.0109C22.6422 16.964 22.6609 17.7187 22.6609 17.7187C22.6609 18.164 22.4875 18.1874 22.2672 18.2343C22.1406 18.253 22.0797 18.1593 22.0094 18.0655C21.9034 18.0995 21.7904 18.106 21.6813 18.0843C21.4984 18.0749 21.3203 18.0749 21.1422 18.0609C20.9547 18.0468 20.8516 18.0843 20.6594 18.0655C20.6219 18.1265 20.5656 18.2109 20.4531 18.1874C20.3594 18.1734 20.2422 17.9062 20.275 17.6952C20.3453 17.5452 20.3219 17.5968 20.3219 17.5312C18.5594 17.4843 16.7828 17.4046 15.0578 17.428C13.7078 17.4327 12.3766 17.489 11.0406 17.5452C10.3281 17.5359 9.78438 17.4234 9.40938 16.8749C9.44688 16.8749 11.2281 16.9734 11.7484 16.9405C12.7094 16.9312 13.5906 16.8515 14.5703 16.8234C16.5016 16.8562 18.4188 16.8562 20.35 16.9921C20.1625 16.8655 20.1625 16.5702 20.4438 16.4952C20.4672 16.4765 20.4813 16.6405 20.5234 16.6359C20.7531 16.6218 20.65 16.9312 20.6031 16.9921ZM12.8406 6.34211C12.55 7.17648 13.0094 8.09523 13.3281 8.00617C13.5625 8.09992 13.7031 7.6593 13.7969 7.18117C13.8672 7.04523 13.9141 7.03117 13.9469 7.10148C13.9375 7.73898 13.9938 7.8843 14.1578 8.07648C14.5234 8.35773 14.8281 8.11398 14.8516 8.09055L15.1328 7.80461C15.1984 7.7343 15.2828 7.7343 15.3719 7.79055C15.4609 7.87023 15.4469 8.00617 15.6344 8.09992C15.7938 8.16555 16.1266 8.11867 16.2063 7.98273C16.3094 7.79992 16.3375 7.73898 16.3844 7.67336C16.4594 7.57492 16.5859 7.61711 16.5859 7.64992C16.5719 7.70617 16.4969 7.75773 16.5484 7.86086C16.6422 7.92648 16.6609 7.8843 16.7125 7.87023C16.9 7.77648 17.0406 7.37336 17.0406 7.37336C17.0453 7.22336 16.9609 7.23273 16.9047 7.27023L16.7594 7.36867C16.6656 7.38273 16.4922 7.44367 16.4031 7.30773C16.3141 7.14836 16.3141 6.91867 16.2484 6.75461C16.2484 6.74523 16.1266 6.4968 16.2391 6.48273C16.2953 6.49211 16.4125 6.52492 16.4313 6.42648C16.4875 6.32805 16.3094 6.05148 16.1828 5.91086C16.075 5.79367 15.925 5.77961 15.7797 5.90148C15.6766 5.99523 15.6906 6.09836 15.6719 6.1968C15.6541 6.26734 15.6533 6.3411 15.6696 6.412C15.6859 6.4829 15.7188 6.54891 15.7656 6.60461C15.8688 6.80148 16.0516 7.0593 15.9906 7.42492C15.9906 7.42492 15.8828 7.59367 15.6953 7.57023C15.6156 7.55617 15.4891 7.52336 15.4234 7.01711C15.3719 6.64211 15.4328 6.10773 15.2734 5.8593C15.2125 5.70461 15.1703 5.5593 15.0297 5.81711C14.9922 5.92023 14.8281 6.07492 14.9453 6.38898C15.0562 6.672 15.0886 6.97971 15.0391 7.27961C14.9688 7.38273 14.9547 7.41555 14.8656 7.51398C14.7438 7.65461 14.6078 7.61711 14.5047 7.56555C14.4109 7.50461 14.3359 7.4718 14.2891 7.26086C14.2984 6.93273 14.3172 6.39367 14.2563 6.28117C14.1672 6.10305 14.0219 6.16867 13.9609 6.22492C13.6821 6.53469 13.4954 6.91623 13.4219 7.32648C13.3375 7.59836 13.2484 7.51867 13.1875 7.41086C13.0375 7.27023 13.0234 6.1593 12.8406 6.34211Z" fill="white"/>
<path fill-rule="evenodd" clip-rule="evenodd" d="M13.7219 8.16095C13.8578 8.0672 13.7969 8.00158 13.9937 8.19845C14.2479 8.64807 14.3954 9.15002 14.425 9.66564C14.4156 9.78751 14.5 9.86251 14.5422 9.83439C14.5609 9.55314 15.25 9.15939 15.8828 9.10314C15.9766 9.0797 15.9297 8.89689 15.9437 8.80314C15.9062 8.45158 16.1406 8.13283 16.4688 8.10939C16.9187 8.17501 17.0687 8.41408 17.0781 8.77501C17.0266 9.47814 16.2953 9.59533 15.8875 9.65158C15.8266 9.67501 15.7984 9.70314 15.8875 9.73595L17.6031 9.74533L17.6922 9.7922C17.7016 9.83908 17.6641 9.80158 17.5984 9.91408C17.5041 10.0799 17.445 10.2634 17.425 10.4531C16.9141 10.6219 16.3844 10.6875 15.85 10.7578C15.6625 10.8516 15.5687 10.9781 15.6062 11.1188C15.6719 11.2735 16.0844 11.4328 16.0844 11.4375C16.1641 11.4844 16.2531 11.6016 16.0609 11.8406C15.2266 11.8031 14.575 11.4469 14.35 10.9453C14.2844 10.8938 14.2094 10.9453 14.1625 11.011C13.8344 11.4328 13.5156 11.8078 12.9578 12.0141C12.6297 12.0985 12.2875 11.9625 12.1281 11.7469C12.0203 11.6203 12.025 11.4844 11.9875 11.4563C11.8047 11.536 10.2578 12.1922 10.4547 11.8828C10.8297 11.4844 11.4859 11.1844 12.0578 10.7906C12.1 10.6547 12.175 10.2047 12.4 10.0594C12.4141 10.0594 12.3672 10.3219 12.3719 10.4344C12.3719 10.5281 12.3625 10.561 12.3812 10.5375C12.4234 10.5141 13.1172 9.96564 13.1781 9.79689C13.2438 9.70314 13.1922 9.45939 13.1922 9.45001C13.0609 9.11251 12.8781 9.08439 12.8125 8.91564C12.7516 8.69533 12.7797 8.4422 12.9062 8.3672C13.0187 8.26876 13.15 8.27814 13.2766 8.39064C13.4172 8.5172 13.5391 8.76564 13.5766 8.94845C13.5531 9.01876 13.3891 8.90158 13.3422 8.93439C13.4324 9.03807 13.4924 9.16455 13.5156 9.30001C13.6094 9.68439 13.5812 9.83439 13.4875 10.0828C13.1781 10.7344 12.7844 10.9266 12.4375 11.1703C12.4281 11.1703 12.4234 11.3344 12.55 11.4235C12.5969 11.4703 12.7797 11.4938 12.9906 11.4235C13.4413 11.1732 13.8057 10.7924 14.0359 10.3313C14.0758 9.98034 14.0373 9.62494 13.9234 9.29064C13.7875 8.97658 13.6281 8.53126 13.6281 8.52189C13.6234 8.32501 13.6375 8.25939 13.7219 8.16095ZM9.23125 6.35158C9.42812 6.44533 9.80312 6.40314 9.78437 6.08439L9.775 5.93908C9.7375 5.84533 9.625 5.86876 9.60156 5.96251C9.59219 5.99533 9.61562 6.04689 9.5875 6.06095C9.56875 6.0797 9.50781 6.07033 9.50781 5.98126C9.50781 5.95314 9.48906 5.92501 9.475 5.90626C9.46563 5.89689 9.45625 5.89689 9.43281 5.89689C9.40469 5.89689 9.40469 5.90158 9.39062 5.92501C9.38594 5.94845 9.37656 5.97189 9.37656 6.00001C9.37656 6.03283 9.35781 6.0422 9.33906 6.04689C9.31094 6.04689 9.31562 6.04689 9.29219 6.03751C9.28281 6.02345 9.26875 6.01876 9.26875 5.99064L9.25469 5.91564C9.24531 5.90158 9.22656 5.8922 9.20781 5.88751C9.1 5.88751 9.09063 6.01408 9.1 6.06095C9.09063 6.07033 9.08594 6.29064 9.23125 6.35158Z" fill="white"/>
<path fill-rule="evenodd" clip-rule="evenodd" d="M15.0203 8.7984C15.2172 8.89215 15.6906 8.84059 15.5734 8.5359L15.5641 8.3859C15.5219 8.29215 15.4141 8.31558 15.3906 8.41402C15.3812 8.44215 15.4047 8.49371 15.3719 8.50777C15.3578 8.52652 15.2922 8.51715 15.2969 8.43277C15.2969 8.40465 15.2781 8.37183 15.2641 8.35308C15.25 8.3484 15.2453 8.34371 15.2172 8.34371C15.1937 8.34371 15.1937 8.35308 15.1797 8.37652C15.1703 8.39996 15.1656 8.4234 15.1656 8.45152C15.1609 8.47965 15.1469 8.48902 15.1234 8.4984C15.1 8.4984 15.1047 8.4984 15.0859 8.48433C15.0719 8.47027 15.0578 8.46559 15.0578 8.44215L15.0437 8.36715C15.0344 8.35309 15.0156 8.34371 14.9969 8.33902C14.8891 8.33902 14.8797 8.4609 14.8844 8.50777C14.8797 8.51715 14.875 8.74215 15.025 8.7984H15.0203ZM18.3953 7.7859C18.5922 7.87965 18.9625 7.83746 18.9484 7.5234L18.9391 7.3734C18.8969 7.27965 18.7891 7.30309 18.7656 7.39684C18.7562 7.42965 18.7797 7.48121 18.7469 7.49996C18.7328 7.51402 18.6672 7.50465 18.6719 7.41558C18.6719 7.38746 18.6531 7.35934 18.6391 7.34059C18.625 7.33121 18.6203 7.33121 18.5922 7.33121C18.5687 7.33121 18.5687 7.34059 18.5547 7.36402L18.5406 7.43434C18.5359 7.46715 18.5219 7.48121 18.4984 7.48121C18.475 7.48121 18.4797 7.48121 18.4609 7.47183C18.4469 7.45777 18.4328 7.45308 18.4328 7.42965C18.4328 7.40621 18.4281 7.36871 18.4187 7.34996C18.4094 7.3359 18.3906 7.33121 18.3719 7.32652C18.2641 7.32652 18.2547 7.4484 18.2594 7.49527C18.2547 7.50465 18.25 7.72496 18.4 7.7859H18.3953ZM20.1437 10.3312C19.8016 10.7203 19.9516 11.3625 20.0312 11.5031C20.1437 11.7281 20.2328 11.8734 20.4531 11.9859C20.6547 12.1312 20.8141 12.0421 20.8984 11.939C21.1 11.7281 21.1047 11.189 21.1984 11.0859C21.2641 10.889 21.4328 10.9218 21.5125 11.0109C21.5871 11.1167 21.687 11.2021 21.8031 11.2593C21.9906 11.4234 22.2156 11.4562 22.4406 11.3062C22.5906 11.2171 22.6891 11.1093 22.7781 10.889C22.8719 10.6265 22.825 9.40777 22.8016 8.6859L22.6047 7.67809C22.6047 7.66871 22.5812 7.19996 22.5578 7.09215C22.5578 7.04527 22.5437 7.03121 22.5906 7.0359C22.6422 7.08277 22.6469 7.08277 22.6844 7.09683C22.7312 7.10621 22.7781 7.01715 22.7453 6.94215L22.2766 6.07027C22.2391 6.03277 22.1875 5.99527 22.1266 6.07965C22.0906 6.11219 22.062 6.15201 22.0426 6.19646C22.0232 6.24091 22.0135 6.28897 22.0141 6.33746C22.0281 6.54371 22.0609 6.75465 22.075 6.9609L22.2625 8.02027C22.3234 8.77027 22.3375 9.38902 22.3984 10.1437C22.3891 10.4625 22.2906 10.739 22.1969 10.7812C22.1969 10.7812 22.0562 10.8609 21.9625 10.7718C21.8922 10.7437 21.6156 10.3078 21.6156 10.3078C21.475 10.1812 21.3812 10.214 21.2828 10.3078C21.0016 10.5796 20.8797 11.0765 20.6875 11.4234C20.6406 11.5031 20.5 11.564 20.35 11.4187C19.9656 10.889 20.1906 10.139 20.1437 10.3312ZM18.4844 5.93902C18.6625 6.00933 18.7844 6.37027 18.7469 6.5484C18.7094 6.75933 18.6156 6.99371 18.55 6.96559C18.475 6.93746 18.5969 6.74996 18.5266 6.55309C18.4891 6.42184 18.2453 6.18746 18.2734 6.12184C18.2266 5.97652 18.3766 5.9109 18.4844 5.93433V5.93902Z" fill="white"/>
<path fill-rule="evenodd" clip-rule="evenodd" d="M20.7156 10.5468C20.7484 10.1155 20.6875 9.85301 20.6781 9.59988C20.6687 9.34676 20.3922 7.41551 20.3359 7.22801C20.2656 6.86238 20.6031 7.18113 20.5656 6.96551C20.4484 6.70301 20.1625 6.31395 20.0734 6.08426C20.0172 5.99051 20.0406 5.89676 19.9187 6.06082C19.8138 6.34847 19.7769 6.65652 19.8109 6.96082C20.1016 8.47488 20.3969 9.73113 20.35 11.1702C20.4906 11.1702 20.6453 10.8561 20.7156 10.5468ZM23.7344 6.54832C23.8984 6.62801 23.9922 7.07801 23.9734 7.20457C23.9406 7.43895 23.8562 7.69207 23.7953 7.65926C23.725 7.63113 23.8094 7.31238 23.7766 7.21395C23.7391 7.07332 23.5187 6.8202 23.5422 6.7452C23.4953 6.58582 23.6359 6.5202 23.7344 6.54832ZM11.7484 9.73113C11.9031 9.79207 11.9969 10.1202 11.9828 10.2139C11.9453 10.3874 11.8656 10.5749 11.8047 10.5468C11.7437 10.528 11.8187 10.2936 11.7906 10.2186C11.7766 10.0452 11.5609 9.95145 11.5656 9.87645C11.5281 9.73582 11.6594 9.71238 11.7531 9.73113H11.7484Z" fill="white"/>
<path fill-rule="evenodd" clip-rule="evenodd" d="M15.4797 10.2282C15.6766 10.2375 15.775 10.3969 15.5922 10.4625C15.4047 10.5235 15.2313 10.575 15.2266 10.8375C15.2969 11.2125 15.1328 11.0813 15.0391 11.0344C14.9266 10.95 14.6078 10.7532 14.5609 10.3313C14.5563 10.2329 14.6359 10.1438 14.7625 10.1438C14.95 10.1954 15.2313 10.2 15.4797 10.2282Z" fill="#165D31"/>
<path fill-rule="evenodd" clip-rule="evenodd" d="M7.62812 5.83119C7.85312 5.89681 7.86719 6.23431 7.85312 6.33275C7.82031 6.51087 7.74062 6.70306 7.68437 6.67962C7.61875 6.65619 7.68437 6.41244 7.65156 6.33744C7.61875 6.23431 7.42656 6.03744 7.44531 5.98119C7.40312 5.864 7.53906 5.80775 7.62812 5.83119ZM12.1234 7.40619C11.9453 7.49994 11.8797 7.78119 11.9875 7.94994C12.0906 8.09056 12.25 8.039 12.2687 8.039C12.4422 8.05775 12.5453 7.71556 12.5453 7.71556C12.5453 7.71556 12.55 7.62181 12.3484 7.80462C12.2594 7.81869 12.2547 7.78587 12.2312 7.739C12.2098 7.64976 12.218 7.55595 12.2547 7.47181C12.2875 7.38744 12.2219 7.34994 12.1234 7.40619ZM13.4359 5.69994C13.3422 5.76087 13.1687 5.94369 13.1641 6.14994C13.1594 6.26712 13.1359 6.26712 13.2109 6.33744C13.2719 6.42181 13.3234 6.41712 13.4359 6.35619C13.464 6.33854 13.488 6.31526 13.5066 6.28782C13.5251 6.26039 13.5378 6.2294 13.5437 6.19681C13.5719 6.06556 13.4031 6.26244 13.3844 6.11244C13.3469 5.97181 13.4547 5.91556 13.5578 5.78431C13.5578 5.69056 13.5578 5.62962 13.4312 5.69994H13.4359ZM14.4859 5.88744C14.4446 6.05813 14.4195 6.23234 14.4109 6.40775C14.3828 6.539 14.5516 6.59525 14.6219 6.4265C14.7344 6.12181 14.7344 5.99056 14.7437 5.864C14.7109 5.66244 14.575 5.66712 14.4859 5.88744ZM21.1422 9.2765C21.1609 9.25306 22.0797 8.6015 22.0797 8.6015C22.1734 8.56869 22.15 8.939 22.1078 8.93431C21.8229 9.20891 21.4952 9.43531 21.1375 9.60462C21.0906 9.63744 21.0484 9.35619 21.1375 9.2765H21.1422ZM21.9719 9.26712C22.1359 9.34681 22.2016 9.82025 22.1828 9.94681C22.1828 10.1999 22.0281 10.3968 21.9625 10.3687C21.8969 10.3359 21.9719 10.0546 21.9391 9.95619C21.9016 9.81556 21.7656 9.55775 21.7891 9.48275C21.7422 9.32337 21.8734 9.239 21.9766 9.26712H21.9719ZM16.5344 11.3015C16.6104 11.2127 16.6988 11.1354 16.7969 11.0718C16.8906 11.0249 16.975 11.1093 16.9703 11.1046C16.9844 11.1984 16.9141 11.2781 16.9375 11.3999C16.9562 11.4468 16.9703 11.5031 17.0594 11.4843C17.2047 11.3671 17.3406 11.3577 17.4812 11.3531C17.5984 11.3577 17.6031 11.5499 17.5281 11.5499C17.2609 11.6062 17.1437 11.6812 16.9516 11.7515C16.8578 11.8077 16.7828 11.7374 16.7828 11.7327C16.7828 11.7281 16.7312 11.6812 16.7641 11.5593C16.7734 11.4656 16.7359 11.4093 16.6516 11.4187C16.5953 11.4562 16.5391 11.4749 16.5109 11.4046C16.4969 11.3577 16.4922 11.3296 16.5344 11.3015ZM22.9375 11.5546C22.975 11.6015 23.0031 11.6484 22.9328 11.7327L22.7594 11.8827C22.7312 11.9296 22.7125 12.014 22.8062 12.0374C22.975 12.0843 23.3687 11.8265 23.3687 11.8218C23.4344 11.7749 23.4156 11.6812 23.4062 11.6812C23.3687 11.639 23.2844 11.6671 23.2281 11.6577C23.2 11.6577 23.1109 11.6484 23.1531 11.564C23.1846 11.5226 23.2099 11.4768 23.2281 11.4281C23.2516 11.3718 23.2281 11.3343 23.1344 11.3015C23.0359 11.2827 22.9937 11.2921 22.8859 11.3015C22.8297 11.3109 22.8109 11.339 22.7969 11.4093C22.8016 11.5171 22.8672 11.5124 22.9375 11.5499V11.5546Z" fill="white"/>
<path fill-rule="evenodd" clip-rule="evenodd" d="M16.5672 8.89216C16.5438 8.93903 16.4594 8.93903 16.3797 8.89216C16.3 8.84528 16.2531 8.77028 16.2813 8.7281C16.3094 8.68591 16.3891 8.68591 16.4688 8.7281C16.5484 8.77028 16.5906 8.84997 16.5672 8.89216ZM12.3953 6.37966C12.3484 6.39372 12.2828 6.35154 12.2547 6.28591C12.2266 6.22029 12.2406 6.16403 12.2875 6.14997C12.3344 6.13591 12.3953 6.18278 12.4281 6.24372C12.4609 6.30466 12.4422 6.37028 12.3906 6.38435L12.3953 6.37966ZM20.65 17.5781C21.0906 17.5968 21.5031 17.5781 21.9391 17.6015C22.0188 17.6718 21.9625 17.8359 21.9109 17.8265L21.5453 17.8125C21.5406 17.6718 21.1844 17.6953 21.1938 17.8172C21.0016 17.8406 20.8281 17.8125 20.6313 17.8031C20.575 17.7328 20.5844 17.6062 20.65 17.5781Z" fill="#165D31"/>
</g>
</g>
<defs>
<clipPath id="clip0_14_284">
<rect width="32" height="24" fill="white"/>
</clipPath>
</defs>
</svg>
